<svg version="1" xmlns="http://www.w3.org/2000/svg" width="21.333" height="21.333" viewBox="0 0 16.000000 16.000000"><path d="M1551 2587 c-83 -31 -152 -125 -153 -209 -1 -63 7 -93 39 -140 58 -87 172 -126 268 -92 52 18 69 17 108 -2 72 -36 257 -258 257 -308 -1 -11 -9 -46 -20 -76 -11 -30 -19 -69 -20 -85 0 -60 -91 -125 -313 -223 -442 -197 -698 -286 -852 -298 l-71 -6 -54 47 c-75 64 -149 96 -235 102 -346 26 -539 -389 -296 -635 135 -136 324 -152 490 -41 61 40 64 41 129 37 82 -6 157 -36 282 -111 130 -78 130 -78 175 -112 86 -64 85 -62 88 -160 3 -133 46 -203 151 -251 62 -28 167 -29 210 -1 14 10 26 14 26 10 0 -20 85 78 106 121 58 123 0 281 -125 343 -57 28 -173 25 -233 -6 -27 -14 -48 -28 -48 -32 0 -3 -13 -12 -28 -18 -41 -17 -86 2 -360 150 -70 38 -169 125 -197 173 -22 37 -26 56 -24 103 3 72 15 98 73 151 95 87 256 175 552 300 232 98 415 169 456 176 15 2 32 7 38 11 20 13 131 7 148 -8 63 -55 177 -68 252 -28 78 41 119 102 127 191 6 59 -17 132 -55 173 -54 59 -160 89 -241 67 -37 -10 -47 -9 -83 10 -46 24 -37 16 -152 130 -54 52 -96 104 -112 136 l-25 51 19 57 c41 121 -8 239 -122 294 -45 22 -127 26 -175 9z" transform="matrix(.00615 0 0 -.00615 0 16)"/></svg>