<?xml version="1.0" standalone="no"?>
<!DOCTYPE svg PUBLIC "-//W3C//DTD SVG 20010904//EN"
 "http://www.w3.org/TR/2001/REC-SVG-20010904/DTD/svg10.dtd">
<svg version="1.0" xmlns="http://www.w3.org/2000/svg"
 width="16.000000pt" height="16.000000pt" viewBox="0 0 16.000000 16.000000"
 preserveAspectRatio="xMidYMid meet">
<metadata>
Created by potrace 1.11, written by Peter Selinger 2001-2013
</metadata>
<g transform="translate(0.000000,16.000000) scale(0.003200,-0.003200)"
fill="#000000" stroke="none">
<path d="M1430 2495 l0 -1275 308 0 309 0 -1 785 c-1 432 2 785 5 785 3 0 11
-10 17 -22 11 -23 43 -80 112 -198 20 -36 49 -85 62 -110 14 -25 72 -126 128
-225 57 -99 117 -205 133 -235 17 -30 59 -104 94 -163 35 -60 63 -110 63 -113
0 -2 10 -21 23 -42 13 -20 37 -62 54 -92 28 -50 67 -118 145 -255 16 -27 36
-65 45 -83 l17 -32 307 0 307 0 -2 1273 -1 1272 -299 3 c-175 1 -302 -2 -305
-7 -3 -5 -6 -360 -6 -789 l0 -781 -25 42 c-15 23 -217 378 -450 790 l-424 747
-308 0 -308 0 0 -1275z"/>
</g>
</svg>
